<svg xmlns="http://www.w3.org/2000/svg" class="svg-logo" width="2400" height="2400" viewBox="0 0 630 430" style="height: auto;"><rect width="630" height="630" y="-100" rx="0" ry="0" fill="transparent" fill-opacity="0"></rect><g data-element="wrapper" transform="translate(-141.75000000000318 -89.33006706238008) scale(1.4500000000000102)"><g ><g data-element="icon" transform="scale(0.17391304347826086) translate(1513.6124220932618 710.0487276297362)"><path id="color_x5F_3_11_" d="M172.124,229.453c-14.239,17.129-24.3,31.879-24.773,42.488    c9.746-17.104,33.384-34.248,32.727-33.457c-3.787,4.556-7.272,8.94-10.367,13.126c45.007-37.816,104.907-56.919,163.961-51.98    c10.343,2.782,3.657-7.058,1.051-9.171c-5.732-1.687-11.738-3.021-17.707-3.419c-12.708-0.847-25.506,1.977-37.357,6.365    c-3.333,1.234,10.664-14.741,52.584-13.485c-6.313-6.038-17.097-7.304-30.17-6.831c-0.603,0.021,14.486-7.574,26.585-4.658    c-6.313-6.038-17.097-7.304-30.17-6.83c-0.564,0.02,12.586-6.611,24.186-5.095c-0.498-0.799-17.081-6.78-27.771-6.394    c-0.462,0.017,8.294-4.438,17.855-5.212c-4.853-3.847-10.047-7.21-15.505-10.157c-2.226-1.201,10.185,0.622,14.104,2.949    c-1.529-2.896-2.929-5.846-4.116-8.878c-0.332-0.849-3.089-3.66-4.484-4.68c-1.266-0.926-5.627-4.349-6.269-5.303    c-2.394,0.452-10.834-1.838-11.644-3.042c-2.393,0.452-10.833-1.837-11.643-3.042c-2.394,0.452-5.022,0.395-7.928-0.364    c-5.64-1.474-6.22-9.574-2.801-8.681c13.105,3.424,22.9-8.884,32.462-27.221c0.303-0.581-1.667,16.259-9.317,27.283    c0.8,0.116,1.597,0.268,2.393,0.435c6.749-4.473,12.704-13.43,18.567-24.675c0.308-0.589-1.729,16.728-9.648,27.735    c0.488,0.24,0.969,0.494,1.447,0.753c7.279-4.145,13.615-13.498,19.845-25.446c0.329-0.631-2.025,19.28-11.423,29.977    c8.67-2.941,15.935-13.256,23.066-26.935c0.296-0.568-1.581,15.463-8.788,26.481c0.046-0.023,0.1-0.047,0.146-0.071    c3.604-1.817,8.408-0.396,9.471,3.854c0.492,1.074,5.063,11.68,21.297-1.389c1.623-1.307-12.959,19.519-23.449,20.094    c-3.111,0.171-6.609-7.04-7.602-8.555c-0.983,0.331-1.969,0.619-2.955,0.849c4.738,8.662,11.037,16.6,17.011,24.644    c10.935-4.648,22.727-7.618,28.104-19.532c4.845-10.734,4.002-23.429-6.088-31.337c-11.164-8.75-25.008-11.328-30.601-25.943    c-3.135-8.191-0.464-27.173-15.022-38.455c5.603,12.208,5.266,31.417-3.409,36.524c7.268-25.402-6.694-45.174-6.721-45.504    c-12.735-8.662-28.682-11.403-43.888-8.497c-0.916,0.175-1.821,0.38-2.726,0.591c6.108,6.348,9.187,15.378,8.895,15.072    c-5.72-5.996-11.242-10.655-16.756-12.75c-0.962,0.346-1.918,0.708-2.865,1.094c7.163,6.301,10.798,16.926,10.482,16.595    c-6.077-6.37-11.931-11.23-17.789-13.107c-0.715,0.39-1.428,0.785-2.132,1.198c7.359,6.264,11.103,17.185,10.782,16.849    c-5.8-6.08-11.397-10.795-16.989-12.844c-0.746,0.513-1.495,1.025-2.242,1.538c6.905,6.336,10.403,16.572,10.093,16.246    c-5.471-5.734-10.76-10.239-16.035-12.456c-1.381,0.787-2.798,1.504-4.268,2.122c7.205,6.5,13.009,14.485,17.189,23.264    c1.163,2.441,3.482,21.813,1.546,33.97c0.318-0.007,8.271-11.967,6.772-33.218c-0.05-0.71,7.6,17.834,4.585,31.75    c6.148-6.784,7.483-19.33,7.069-34.75c-0.01-0.392,2.296,5.052,3.87,12.346c0.822-8.812-0.518-17.074-3.892-25.284    c-1.235-3.005,3.714-4.96,5.175-2.182c7.311,13.902,11.266,37.086,0.505,50.551c-1.941,4.777-6.105,10.57-11.362,10.264    c-22.521-1.31-29.861,14-36.224,12.804c-6.154-1.158-21.403-7.402-31.747,7.016c-2.788,3.885-9.344-1.813-9.936-1.569    c-2.777,1.145-10.858,6.586-11.835,7.053c-7.734,3.696-18.349-3.577-24.029-8.557c-7.542-6.614-12.452-15.996-14.249-25.789    c-0.493-2.687,3.339-3.822,4.138-1.141c0.207,0.693,0.455,1.36,0.693,2.033c-0.098-0.419-0.131-0.644-0.083-0.577    c8.915,12.589,17.506,21.828,26.494,23.571c-10.757-9.33-15.78-28.74-15.369-28.159c8.915,12.59,17.506,21.829,26.494,23.571    c-10.757-9.33-15.78-28.74-15.368-28.159c8.915,12.59,17.506,21.829,26.494,23.572c-10.757-9.33-15.78-28.74-15.369-28.159    c9.604,13.563,18.834,23.229,28.587,23.829c1.981-1.103,20.592-1.378,21.955-0.715c8.729-5.775,10.568-19.65,10.093-37.319    c-0.019-0.712,7.6,17.833,4.585,31.75c6.098-6.729,8.006-37.017,7.581-37.709c-6.303-10.253-16.72-15.865-27.006-21.752    c-12.592-0.271-25.009-6.793-37.885-5.961c-3.819,0.247-7.61,0.905-11.308,1.917c5.61,3.274,9.421,6.892,9.097,6.785    c-6.169-2.032-11.913-3.491-17.083-3.956c-2.328,1.018-4.596,2.172-6.77,3.484c9.66,3.17,17.677,10.661,17.213,10.508    c-10.27-3.383-19.365-5.181-26.585-3.424c-0.637,0.596-1.253,1.212-1.861,1.838c11.562,1.774,22.342,11.799,21.806,11.623    c-11.361-3.742-21.287-5.552-28.824-2.745c-0.223,0.336-0.452,0.669-0.67,1.008c11.95,1.296,23.406,11.956,22.854,11.773    c-10.868-3.579-20.411-5.371-27.818-3.065c-2.611,5.104-4.873,10.38-7.039,15.696c-1.025,4.42-2.274,8.816-2.639,13.395    c-0.683,8.588,0.378,16.989,2.656,25.285c1.06,3.86-4.85,5.463-5.974,1.647c-1.544-5.243-2.853-11.49-3.461-17.944    c-2.703,5.684-5.76,11.171-9.521,16.279c-2.306,8.221,1.257,18.25,7.294,29.517c0.273,0.509-12.031-8.805-15.472-20.245    c-0.267,0.252-0.522,0.509-0.794,0.758c-0.065,0.06-0.133,0.095-0.199,0.151c-1.32,7.848,2.149,17.201,7.728,27.611    c0.272,0.508-11.971-8.762-15.445-20.164c-0.115,0.125-0.22,0.254-0.335,0.378c-0.241,0.258-0.486,0.514-0.728,0.772    c-1.174,7.782,2.269,17.021,7.771,27.289c0.266,0.497-11.432-8.358-15.199-19.413c-0.489,0.519-0.98,1.035-1.467,1.556    c-0.686,7.535,2.698,16.37,7.928,26.132c0.259,0.482-10.762-7.85-14.853-18.451c-1.108,1.275-2.223,2.545-3.294,3.853    c-10.542,12.879-24.001,33.86-14.388,49.814c-0.676-12.951,5.253-27.321,5.237-26.693c-0.415,15.421,0.921,27.967,7.069,34.75    c-3.014-13.917,4.605-32.462,4.586-31.75c-0.415,15.421,0.921,27.967,7.069,34.75c-3.015-13.917,4.626-32.461,4.585-31.75    c-2.776,48.104,44.233,40.656,50.458,34.746c-13.843,3.337-32.561-3.85-31.848-3.847c15.426,0.056,27.938-1.57,34.577-7.874    c-13.843,3.337-32.561-3.85-31.849-3.848c20.679,0.076,43.253-17.258,43.625-17.359c10.734-2.933-6.303,9.974-2.282,40.584    c11.103-13.959,27.631-25.908,27.08-25.246c-14.24,17.129-24.3,31.879-24.773,42.488c9.747-17.104,33.384-34.248,32.727-33.457    c-14.24,17.129-24.3,31.879-24.773,42.488C149.144,245.806,172.781,228.662,172.124,229.453z M90.017,171.195    c2.758,1.4,5.627,2.44,8.663,3.047c2.485,0.497,5.384,0.207,7.536,1.668c0.893,0.606,0.923,1.838,0,2.438    c-2.521,1.638-5.937,0.754-8.698,0.108c-3.356-0.786-6.536-2.1-9.554-3.751C85.655,173.441,87.697,170.018,90.017,171.195z     M126.688,185.329c-9.832,15.064-34.497,10.744-47.391,2.457c-2.953-1.897-0.35-6.373,2.752-4.708    c7.2,3.863,14.926,5.498,23.062,4.48c6.774-0.847,12.769-3.87,19.445-5.001C126.052,182.303,127.674,183.819,126.688,185.329z     M134.67,160.203c-6.665,8.983-22.468,1.683-28.575-4.349c-2.911-2.875,1.491-7.226,4.472-4.472    c3.318,3.066,7.357,5.027,11.858,5.569c3.658,0.44,7.591-0.615,11.131,0.514C134.591,157.795,135.424,159.187,134.67,160.203z     M145.8,147.554c-7.739,1.182-15.323-4.772-19.34-10.919c-3.383-5.176,4.639-9.563,8.149-4.764c1.364,1.865,3.208,3.337,5.256,4.384    c2.261,1.156,4.793,1.396,7.087,2.482C150.543,140.436,149.826,146.938,145.8,147.554z M116.057,255.045    c-0.256,1.485,3.289,6.423,3.533,7.522c-1.966-0.383-20.84,11.746-30.457,12.252c-9.331,0.491-18.378-3.441-25.04-9.85    c-8.181-7.872-10.59-18.772-14.237-29.164c9.846,4.514,53.999,7.385,64.329,4.896c-12.142,19.9-34.016,13.771-31.382,15.755    C91.578,263.063,114.986,255.778,116.057,255.045z M317.657,535.318c0.487,11.448,0.765,22.883,0.996,34.34    c-6.731,0.548-13.502,0.837-20.302,0.837c-58.474,0-112.278-20.325-154.763-54.257c0.176-0.141,0.353-0.28,0.529-0.422    c9.938,0.809,25.613,4.583,44.164,17.766c0.687,0.488-13.608-18.666-27.969-26.205c8.957,0,21.324,7.882,35.667,19.186    c0.662,0.521-13.608-18.667-27.969-26.205c8.957-0.001,21.324,7.881,35.667,19.184c0.662,0.522-13.608-18.666-27.969-26.204    c8.957-0.001,21.324,7.881,35.667,19.185c0.543,0.428-8.97-12.419-20.334-21.21c24.998,8.633,47.295,23.485,70.833,35.741    C275.187,533.986,301.871,543.63,317.657,535.318z M443.608,523.629c-2.409,1.734-4.854,3.433-7.336,5.09    c-9.491-1.971-16.797-4.349-16.774-4.497C427.254,525.426,436.396,524.69,443.608,523.629z M471.406,500.378    c-7.385,7.144-15.243,13.88-23.571,20.145c-14.199-1.576-28.908-6.075-29.016-6.472c15.721,2.111,36.488-3.275,35.689-3.284    c-16.652-0.174-33.921-6.058-32.091-6.06c11.755-0.016,23.313-0.715,34.978-2.189C462.103,501.923,466.77,501.205,471.406,500.378z     M401.459,527.497c6.049,7.763,3.824,19.067-5.221,22.946c-20.568,8.822-42.259,14.8-64.517,17.8    c-0.712-13.383-2.357-26.796-4.655-39.979c3.802-0.789,12.648-5.466,19.154-28.403c1.972-6.953,10.922-4.521,11.889,7.676    c0.051,0.633,2.552-12.55,1.98-25.787c0.222,0.142,0.425,0.309,0.649,0.447c1.377,0.849,2.88,1.676,4.45,2.448    c1.574,6.667,2.586,14.748,3.302,23.774c0.045,0.564,2.024-9.88,2.042-21.543c1.856,0.629,3.749,1.102,5.626,1.373    c1.244,6.1,2.091,13.216,2.713,21.053c0.044,0.554,1.956-9.474,2.048-20.857c1.81-0.145,3.548-0.579,5.174-1.334    c1.49,6.525,2.467,14.347,3.159,23.073c0.02,0.251,2.727-3.983,5.931-9.286c1.176,9.463,3.833,22.857,5.38,25.322    C400.843,526.664,401.141,527.09,401.459,527.497z M311.556,467.711c-12.542,7.188-33.211,3.261-45.11-0.81    c-24.744-8.465-46.972-25.343-73.713-25.731c-0.135,1.15-0.262,2.301-0.409,3.45c16.181-3.97,45.257,13.881,44.294,13.596    c-17.51-5.186-31.917-7.925-40.236-4.605c16.131,1.682,36.495,14.218,35.687,13.979c-17.509-5.186-31.917-7.925-40.236-4.605    c16.131,1.682,36.496,14.218,35.687,13.979c-16.821-4.982-30.755-7.682-39.203-4.946c-0.038,0.151-0.07,0.303-0.112,0.453    c15.975,2.045,35.559,14.101,34.766,13.865c-16.136-4.778-29.644-7.485-38.175-5.283c-0.096,0.156-0.204,0.3-0.305,0.45    c21.831,3.686,41.824,13.323,61.783,23.124c12.486,6.131,25.135,13.07,38.623,16.736c12.654,3.439,21.68,0.912,32.424-3.791    c0.749-1.318,3.341-15.914,2.213-22.408C317.89,485.707,315.172,476.575,311.556,467.711z M301.335,512.636    c-6.749,1.192-12.403-3.724-13.555-10.233c-1.257-7.108,3.714-12.943,8.203-17.817c2.052-2.229,5.484,0.64,4.079,3.147    c-1.293,2.311-2.584,4.69-3.233,7.2c4.452-1.992,10.164,0.223,12.227,4.966C311.588,505.727,307.206,511.6,301.335,512.636z     M328.113,472.345c-4.749,15.049,9.347,22.249,8.633,23.876c-1.922,4.377-4.076,8.633-6.404,12.79    c-0.46-5.569-8.609-36.429-13.146-46.016c0.356-0.437,12.659-7.145,11.907-7.07c0.339-0.033,5.21,9.708,8.503,13.997    c1.622,2.115-3.748,5.174-3.946,3.173C333.375,470.221,329.149,469.061,328.113,472.345z" fill="#cccccc" fill-opacity="1"></path> <path id="color_x5F_2_13_" d="M435.621,457.585c-2.282-1.96-4.993-3.701-8.16-4.854    c-31.183-11.349-37.148-49.586-37.924-62.494c-1.64-27.265,9.335-58.003,7.785-64.812c-7.359-4.271-5.112-17.485,2.077-21.296    c0.116-0.062,0.236-0.105,0.353-0.163c-0.262-2.167,2.788-12.334,6.411-12.414c24.585-2.407,29.808-24.528,50.673-21.815    c7.517,0.978,13.686,4.168,18.815,8.657c-0.907-2.712-1.829-5.436-2.671-8.208c-5.175-17.033-5.857-36.063,9.788-47.507    c3.581-2.619,11.997-3.23,14.362,8.829c1.603,8.166,8.646,14.148,12.292,21.667c2.271-7.132,8.059-17.206,16.067-21.044    c1.411-0.261,2.963-0.138,4.51,0.245c-1.525-3.92-3.137-7.796-4.854-11.618c-2.437,0.514-4.972,1.669-7.6,3.62h-11.484    c-1.855-3.893-3.612-7.433-5.926-10.063h21.992c-1.446-2.986-2.95-5.939-4.512-8.858H367.851c1.016-2.9,1.667-6.153,1.417-10.063    h142.666c-1.785-2.993-3.628-5.947-5.533-8.858H367.233c-1.116-3.47-2.513-6.828-4.212-10.063H499.49    c-2.182-3.002-4.421-5.959-6.73-8.859H360.486c1.232-1.474,3.806-2.542,7.728-3.204c1.449-2.392,2.963-4.664,4.495-6.858H484.25    c-2.677-3.02-5.425-5.972-8.243-8.859h-96.832c2.525-3.397,4.941-6.7,7.066-10.063h79.411c-3.344-3.053-6.794-5.988-10.3-8.858    h-64.434c1.305-3.165,2.249-6.483,2.698-10.063h48.625c-4.336-3.096-8.785-6.041-13.32-8.858h-35.211    c-0.308-3.128-0.984-6.472-2.066-10.063h19.506c-6.264-3.211-12.669-6.179-19.222-8.858c0,0-23.962-8.515-34.492-11.17    c0.065,0.058,0.137,0.118,0.201,0.176c0.067,0.061,0.134,0.123,0.202,0.184c1.991,0.996,3.945,1.981,5.676,3.062    c13.591,8.494,21.779,22.856,20.058,39.06c-2.235,21.023-17.861,40.054-38.401,43.205c7.623,11.928,16.522,26.651,15.445,40.585    c-0.42,5.435-4.489,10.721-10.439,10.486c2.806,6.822,4.466,14.222,5.849,21.587c3.034,16.161,5.112,32.126,12.168,47.183    c6.408,13.675,13.885,26.205,16.571,41.297c2.376,13.345,1.99,27.044-0.998,40.263c-7.055,31.201-29.955,55.868-58.108,67.253    c-0.592,4.505,7.837,10.509,8.436,10.465c1.122-0.844,2.673-0.99,3.792,0.366c6.771,8.201,27.303,38.715,67.54,35.229    c8.489-5.843,18.341-8.49,26.119-9.63C438.325,470.536,440.817,462.051,435.621,457.585z M361.936,222.012    c0.057-2.767,0.895-5.234,1.982-7.697h111.08c-3.635,2.541-6.528,6.032-8.764,10.063H361.967    C361.958,223.59,361.919,222.796,361.936,222.012z M362.525,233.237h100.019c-0.996,3.28-1.684,6.685-2.104,10.063h-96.255    C363.47,239.93,362.912,236.571,362.525,233.237z M366.382,252.158h93.559c0.03,2.59,0.213,5.074,0.54,7.361    c-7.073-1.232-14.742-0.042-22.432,2.701H369.54C368.391,258.881,367.328,255.523,366.382,252.158z M372.788,271.079h47.536    c-4.798,3.045-9.414,6.473-13.691,10.063h-29.759C375.475,277.836,374.104,274.479,372.788,271.079z M385.202,300.063    c-1.456-3.256-2.963-6.614-4.489-10.062h16.334c-3.382,3.443-6.354,6.856-8.795,10.062H385.202z M367.127,422.448h16.79    c1.148,3.432,2.478,6.796,3.992,10.063h-31.433C360.239,429.394,363.807,426.042,367.127,422.448z M344.15,441.37h48.505    c2.198,3.57,4.647,6.953,7.393,10.063h-48.167C348.953,448.27,343.64,441.686,344.15,441.37z M414.211,470.354h-38.076    c-1.671-0.73-12.579-7.188-15.676-10.063h49.229c4.233,3.128,8.91,5.742,14.102,7.654    C420.262,468.729,417.127,469.557,414.211,470.354z M188.101,425.957c1.579,0.196-9.809,5.68-9.655,23.565    c0.033,3.796-3.829,18.233-4.896,21.714c-3.714,5.197-6.971,11.031-11.09,15.274c-8.667,8.929-18.677,15.682-30.273,20.071    c-1.822-1.643-3.624-3.307-5.396-5.001c3.162-1.239,6.849-2.38,8.177-3.448h-11.708c-2.9-2.883-5.731-5.836-8.487-8.858h26.403    c4.317-2.973,8.319-5.969,11.892-10.063h-46.983c-2.375-2.9-4.691-5.851-6.936-8.858h59.888c1.203-2.33,3.84-9.349,4.063-10.063    H92.024c-1.956-2.91-3.851-5.863-5.686-8.858h78.795c0.478-3.558,0.477-6.863,0.064-10.063H80.498    c-1.604-2.917-3.144-5.873-4.633-8.859h87.147c-1.156-3.249-2.675-6.552-4.486-10.063h-87.4c-1.298-2.925-2.549-5.875-3.735-8.858    h83.366c-3.529-3.279-6.887-6.642-6.99-10.063H63.652c-1.025-2.944-2-5.911-2.915-8.904c28.21-0.102,92.701-0.349,93.032-0.487    c-0.88-3.683-2.829-6.78-5.378-9.529H57.895c-0.763-2.931-1.462-5.888-2.119-8.858h81.172c-5.434-3.376-11.168-6.476-15.659-10.063    H53.754c-0.522-2.935-0.977-5.891-1.394-8.859h61.139c-2.049-3.127-3.796-6.517-5.189-10.063H51.142    c-0.291-2.938-0.519-5.893-0.707-8.858h55.201c-0.452-2.087-0.846-7.997-0.518-10.063h-55.13c-0.044-1.923-0.073-3.85-0.073-5.783    c0-1.026,0.036-2.05,0.048-3.075h56.669c0.625-3.498,1.296-7.127,1.859-10.063H50.286c0.155-2.959,0.354-5.912,0.613-8.859H70.13    c-6.041-2.341-11.743-5.551-16.843-9.662c-0.035-0.028-0.567-0.057-1.355-0.085c0.44-3.451,0.975-6.886,1.559-10.311    c2.828,2.511,5.891,4.757,9.196,6.606c15.806,8.845,39.273,9.352,54.88-1.266c0.045,0.223,0.073,0.448,0.126,0.67    c1.441,6.092,5.65,11.017,11.064,13.548c-4.879,5.427-7.831,12.824-8.673,20.418c-1.615,14.551,4.25,29.508,16.076,38.339    c4.303,3.213,10.424,6.13,16.836,7.682c0.767,3.128,2.838,5.953,5.453,8.742c3.124,3.331,7.121,6.196,8.761,10.518    c6.435,16.946-11.639,14.195-8.866,18.088c0.896,1.259,15.762,9.21,20.963,6.73c-1.952,2.387-4.125,4.476-5.597,5.765    C169.306,419.702,179.639,424.905,188.101,425.957z M494.766,285.532c-9.591-10.233-13.275-22.08-13.701-31.295    c2.171-5.801,4.857-9.127,7.31-1.282c3.441,11.014,9.584,25.474,15.144,32.353c1.975,2.444,4.022,6.626,5.873,10.911    c0.372,5.513,0.506,11.293-0.02,15.479c-1.185,9.436-3.784,18.533-5.779,27.78c-1.402-0.728-2.831-1.403-4.279-2.035    C489.604,316.508,500.821,303.271,494.766,285.532z M561.938,285.026c-20.939,8.689-9.354,68.519-37.846,73.771    c-2.057,0.379,13.008-22.671,15.668-55.092c5.084-8.364-8.339-43.471-10.469-60.314c-0.54-4.273-16.313,4.67-11.293,27.169    c1.862,8.346,7.805,14.442,8.312,23.031c1.077,18.252-2.708,38.278-8.493,55.503c-0.006,0.018-0.016,0.031-0.021,0.049    c1.342,1.166,3.687,11.772,2.781,12.293c-2.178,1.254-22.002-13.01-30.882-17.065c-2.044-0.341-4.133-1.093-5.755-2.386    c-1.14-0.437,2.998-17.234-6.211-40.448c-0.705-1.787-1.51-3.438-2.381-4.982c-8.325-4.015-22.854-9.747-28.964-4.363    c-6.36,5.605-16.767,10.204-25.726,11.091c-0.419,1.412,0.161,3.066,1.777,3.642c8.865,3.156,19.253-11,24.106-11.184    c8.982-0.34,17.606,4.188,22.542,11.702c10.136,15.431,6.662,39.236-2.188,54.352c-2.798,4.778-6.51,9.831-11.146,13.372    c5.04,3.765,8.735,9.356,6.292,14.965c-0.902,2.069-14.774-14.252-41.187-18.629c-6.188-7.855-2.948-16.87-1.124-25.632    c4.796-23.039-2.123-28.335-7.887-29.198c-2.492-0.373-4.358,2.269-3.274,4.544c3.411,7.161,2.535,18.325,1.212,24.757    c-7.43,36.102-3.886,48.363-1.576,56.136c3.932,13.236,12.604,24.481,23.313,33.004c9.184,7.308,19.55,13.187,25.451,23.787    c4.345,7.805,5.913,17.88,3.183,26.484c9.556-0.478,19.007-1.527,28.339-3.265c1.006-1.192,1.995-2.397,2.978-3.606    c-7.925-1.131-19.395-2.485-18.979-2.499c8.819-0.291,19.128-3.055,24.773-4.916c0.313-0.416,0.617-0.839,0.928-1.258    c-11.556,1.021-24.964-2.535-24.399-2.554c4.801-0.158,15.403-3.646,19.424-4.157c-12.906-0.517-24.448-12.436-16.001-13.18    c17.282-1.521,29.263-7.443,38.021-23.008c7.811-13.881,9.662-29.861,15.817-44.385c4.041-9.535,8.982-18.527,13.58-27.71    c0.02-0.151,0.045-0.302,0.064-0.452c0.664-1.238,1.315-2.481,1.977-3.72c2.531-5.252,4.904-10.593,6.854-16.181    c2.801-8.027,6.779-16.012,6.978-24.512c0.212-9.096,2.97-16.853,4.851-21.469C566.236,286.358,564.087,284.134,561.938,285.026z     M435.37,383.055c-8.892-5.734-20.449-0.096-17.236-5.078s12.305-3.06,21.917,1.36c16.239,7.469,19.412,20.927,19.412,20.927    S444.261,388.788,435.37,383.055z M506.858,416.441c-5.29,9.162-13.74,14.188-18.875,11.223c-5.134-2.964-5.008-12.795,0.282-21.957    s13.74-14.188,18.875-11.223C512.274,397.448,512.148,407.279,506.858,416.441z M484.456,405.219    c-8.996,12.99-16.696,27.281-18.573,42.928c-3.642-14.445-1.925-33.155,8.444-46.94c4.128-5.489,12.217-15.125,20.786-20.424    c-3.122-1.509-9.973-13.8-5.189-11.673c5.598,2.491,22.268,10.239,21.761,11.492C509.693,385.52,499.412,383.623,484.456,405.219z     M253.151,431.637c26.128,4.149,54.859-1.536,77.604-15.295c11.466-13.089,27.611-33.792,33.513-54.302    c8.126-28.24-3.366-58.859-12.139-78.984c-0.649-0.584-1.324-0.94-2.117-1.19c-4.352-1.372-13.484-1.056-16.651-0.441    c2.219,0.075,6.426,4.052,5.562,4.475c-2.181,1.066-3.865,0.928-6.25,0.931c-2.635,0.003-15.181,1.551-14.904-0.867    c0.749-6.565,3.98-11.024,9.973-13.913c5.937-2.861,13.394-3.664,19.327-0.403c-2.189-5.003-4.851-12.651-7.618-21.067    c-1.376,0.495-2.745,1.198-4.165,2.077c-3.94,2.439-5.418,6.168-8.852,8.966c-1.882,1.533-4.811,1.941-7.186,1.2    c-6.434,3.701-5.297,16.571-5.922,15.62c-3.598-5.476,1.941-21.314,2.1-21.521c0.983-7.56,8.076-13.198,15.293-15.095    c1.844-0.484,3.754-0.681,5.682-0.664c-3.424-10.688-6.808-21.509-9.481-29.041c-50.394,1.384-105.625,14.031-141.758,49.632    c2.569-2.29,11.242-3.505,10.572-1.971c-2.981,6.829-10.918,16.819-6.901,13.031c2.684-2.531,6.409,1.281,4.016,4.016    c-4.504,5.148-5.133,8.944,0.327,7.227c6.801-2.139-2.841,10.897-5.497,15c-0.629,0.972,10.455,2.801,6.672,5.512    c-2.425,1.738-7.531,12.354-9.624,14.389c-2.007,1.95-16.644-12.204-19.879-13.822c-0.003,0.075-0.048,0.149-0.145,0.149    c-0.159,0-0.155-0.165-0.062-0.245c-6.12-3.01-13.173-4.251-19.192-2.31c-10.751,3.469-13.384,17.753-11.193,27.339    c2.2,9.624,8.959,16.881,18.319,19.902c4.438,1.433,8.804,1.219,13.179,1.073c-5.367-4.033-7.014-10.938-5.197-17.277    c0.866-3.021,4.967-5.356,4.095-6.307c-10.107-4.241-22.519,9.364-21.59,5.522c1.579-6.533,8.468-12.569,15.565-13.792    c-2.795-2.952-6.066-5.028-10.418-5.078c-2.344-0.027-2.973-3.718-0.566-4.184c10.397-2.015,20.144,5.468,26.32,13.26    c4.362,5.503,3.5,14.185-1.671,17.26c1.448,2.039,5.712,1.4,8.347,2.344c2.829,1.013,4.004,3.828,2.661,6.541    c-0.971,1.962-4.491,26.029,20.117,49.111c1.423,1.334,0.391,3.327-0.886,4.278c4.354,8.866,6.975,19.156,4.39,27.937    c0.815,0.992,1.68,1.945,2.649,2.809c1.503,1.337,3.317,2.342,4.944,3.541c13.259,3.099,25.985,8.803,39.006,13.689    c10.978,4.12,22.474,7.543,34.301,7.35c9.886-0.162,19.083-5.133,28.815-4.713c0.304,0.013,1.4-0.728,1.682-1.157    C295.895,454.011,262.268,441.543,253.151,431.637z M329.625,381.758c-1.553,7.196-10.64,10.53-17.109,11.731    c-7.82,1.451-15.458,0.164-22.432-3.591c-3.572-1.923-0.425-7.133,3.151-5.391c6.05,2.946,12.82,3.565,19.297,1.67    c5.3-1.551,9.178-5.742,14.414-7.1C328.616,378.646,329.973,380.143,329.625,381.758z M218.999,250.198    c13.416-19.386,40.899-19.959,60.358-9.773c2.183,1.143,3.849,3.955,3.69,6.434c-0.036,0.563-0.072,1.127-0.108,1.69    c-0.15,2.353-1.509,4.346-3.837,5.041c-5.463,1.628-7.269-0.773-11.5-3.714c-4.285-2.979-9.459-4.825-14.647-5.342    c-10.829-1.08-21.629,3.22-30.479,9.141C220.404,255.06,217.56,252.276,218.999,250.198z M251.436,300.484    c-17.968,0-17.938-27.879,0-27.879c1.031,0,10.467-2.098,17.302,7.995c0.56,0.827-3.306,2.551-4.245,2.377    C266.304,290.906,261.952,300.484,251.436,300.484z M263.499,344.181c7.654,4.151,17.541,7.062,26.106,6.964    c7.421-0.085,7.354,11.202,0,11.479c-10.546,0.399-24.456-8.417-32.13-15.378C254.63,344.666,260.348,342.472,263.499,344.181z     M218.536,312.153c0-1.521,2.157-2.753,4.818-2.753s4.818,1.232,4.818,2.753s-2.157,2.754-4.818,2.754    S218.536,313.674,218.536,312.153z M237.65,358.025c-2.466,2.259-3.909,5.139-4.412,8.447c-0.517,3.405-6.291,2.573-5.989-0.811    c0.433-4.861,2.395-9.313,5.869-12.784c3.117-3.114,8.021-6.005,12.321-3.396c0.96,0.583,1.056,1.816,0.338,2.623    c-0.708,0.796-1.524,1.436-2.379,2.017c12.084,11.628,33.089,12.883,48.91,13.05c9.154,0.097,18.404-0.634,27.258-3.059    c5.119-1.402,9.779-4.381,14.748-5.438c-0.317-0.761-0.548-1.548-0.74-2.346c-1.402-0.065-2.784-0.239-4.114-0.539    c-3.295-0.744-4.491-3.357-4.159-5.912c-14.878,5.03-38.017,2.767-37.084-13.549c0.308-5.393,7.931-8.266,10.757-2.913    c3.19,6.042,9.544,5.652,15.625,5.52c4.785-0.105,10.1-0.617,12.769-5.021c5.579-9.206-0.501-22.963-9.614-26.906    c-2.563-1.109-0.61-4.734,1.79-4.247c16.467,3.345,27.63,26.91,16.115,40.711c4.585-1.207,8.325-1.493,12.909-3.806    c3.592-1.813,8.57-2.922,7.182,1.391c-2.075,6.444-7.749,12.66-14.136,14.387c0.091,0.121,0.174,0.252,0.271,0.364    c1.288,1.473,2.856,2.657,3.372,4.649c0.619,2.394-1.091,4.17-3.316,4.473c-4.063,7.232-14.957,9.552-22.549,11.269    c-10.585,2.394-21.487,2.776-32.268,1.78C269.293,376.332,249.209,372.819,237.65,358.025z M316.283,325.921    c0-1.521,1.695-2.754,3.786-2.754s3.786,1.233,3.786,2.754s-1.695,2.753-3.786,2.753S316.283,327.441,316.283,325.921z     M443.974,366.6c6.678,1.089,8.672-2.029,12.339-7.451c1.741-2.574,15.221-22.506-0.659-43.044    c-5.597-7.239-22.687,1.33-23.65,1.664c3.08,5.257,7.522,17.842,3.3,36.231C433.427,362.17,435.048,365.146,443.974,366.6z     M452.173,327.49l2.064,10.133h-11.014l-2.064-10.133H452.173z M443.969,344.433h10.247l-2.365,11.602h-12.61L443.969,344.433z" fill="#cccccc" fill-opacity="1"></path> <path id="color_x5F_1_9_" d="M466.234,224.378H361.967c-0.009-0.789-0.048-1.583-0.031-2.366    c0.057-2.767,0.895-5.234,1.982-7.697h111.08C471.363,216.856,468.47,220.347,466.234,224.378z M462.544,233.237H362.525    c0.387,3.334,0.944,6.693,1.66,10.063h96.255C460.86,239.921,461.548,236.517,462.544,233.237z M460.48,259.52    c-0.327-2.287-0.51-4.771-0.54-7.361h-93.559c0.946,3.365,2.009,6.723,3.158,10.063h68.509    C445.738,259.477,453.407,258.287,460.48,259.52z M420.324,271.079h-47.536c1.316,3.399,2.687,6.757,4.086,10.063h29.759    C410.91,277.552,415.526,274.124,420.324,271.079z M397.047,290h-16.334c1.526,3.448,3.033,6.806,4.489,10.062h3.05    C390.693,296.857,393.665,293.444,397.047,290z M383.917,422.448h-16.79c-3.32,3.594-6.888,6.945-10.65,10.063h31.433    C386.395,429.244,385.065,425.88,383.917,422.448z M392.655,441.37H344.15c-0.511,0.315,4.803,6.899,7.73,10.063h48.167    C397.303,448.323,394.854,444.94,392.655,441.37z M360.459,460.291c3.097,2.874,14.005,9.332,15.676,10.063h38.076    c2.916-0.797,6.051-1.624,9.578-2.408c-5.191-1.912-9.868-4.526-14.102-7.654H360.459z M252.955,244.533    c5.188,0.518,10.362,2.363,14.647,5.342c4.23,2.941,6.036,5.342,11.5,3.714c2.329-0.694,3.687-2.688,3.837-5.041    c0.036-0.563,0.072-1.127,0.108-1.69c0.159-2.479-1.507-5.291-3.69-6.434c-19.459-10.186-46.942-9.613-60.358,9.773    c-1.438,2.079,1.406,4.862,3.477,3.477C231.325,247.753,242.126,243.453,252.955,244.533z M317.752,307.008    c9.113,3.943,15.193,17.7,9.614,26.906c-2.669,4.404-7.983,4.916-12.769,5.021c-6.08,0.133-12.435,0.522-15.625-5.52    c-2.826-5.353-10.449-2.479-10.757,2.913c-0.932,16.315,22.207,18.579,37.084,13.549c-0.332,2.555,0.864,5.168,4.159,5.912    c1.33,0.3,2.712,0.474,4.114,0.539c0.192,0.798,0.423,1.585,0.74,2.346c-4.969,1.057-9.629,4.035-14.748,5.438    c-8.854,2.425-18.104,3.155-27.258,3.059c-15.821-0.167-36.826-1.422-48.91-13.05c0.855-0.581,1.67-1.221,2.379-2.017    c0.718-0.807,0.622-2.04-0.338-2.623c-4.3-2.608-9.205,0.282-12.321,3.396c-3.474,3.471-5.437,7.923-5.869,12.784    c-0.301,3.384,5.473,4.216,5.989,0.811c0.502-3.309,1.945-6.188,4.412-8.447c11.559,14.794,31.643,18.307,49.473,19.953    c10.781,0.996,21.683,0.613,32.268-1.78c7.592-1.717,18.486-4.036,22.549-11.269c2.226-0.303,3.936-2.079,3.316-4.473    c-0.516-1.992-2.084-3.177-3.372-4.649c-0.098-0.112-0.181-0.243-0.271-0.364c6.387-1.727,12.061-7.942,14.136-14.387    c1.389-4.313-3.59-3.203-7.182-1.391c-4.584,2.313-8.324,2.599-12.909,3.806c11.515-13.801,0.352-37.366-16.115-40.711    C317.142,302.273,315.188,305.898,317.752,307.008z M326.945,379.078c-5.236,1.357-9.114,5.549-14.414,7.1    c-6.477,1.896-13.247,1.276-19.297-1.67c-3.576-1.742-6.723,3.468-3.151,5.391c6.974,3.755,14.612,5.042,22.432,3.591    c6.47-1.201,15.557-4.535,17.109-11.731C329.973,380.143,328.616,378.646,326.945,379.078z M289.605,362.624    c7.354-0.277,7.421-11.564,0-11.479c-8.565,0.098-18.452-2.813-26.106-6.964c-3.151-1.709-8.869,0.485-6.024,3.065    C265.149,354.207,279.06,363.023,289.605,362.624z M268.738,280.601c-6.835-10.093-16.271-7.995-17.302-7.995    c-17.938,0-17.968,27.879,0,27.879c10.516,0,14.868-9.578,13.057-17.507C265.432,283.152,269.298,281.427,268.738,280.601z     M79.298,187.786c12.894,8.287,37.559,12.607,47.391-2.457c0.985-1.51-0.637-3.026-2.132-2.773    c-6.676,1.132-12.671,4.154-19.445,5.001c-8.136,1.018-15.862-0.617-23.062-4.48C78.948,181.413,76.345,185.889,79.298,187.786z     M145.8,147.554c4.026-0.615,4.743-7.118,1.152-8.817c-2.294-1.085-4.826-1.326-7.087-2.482c-2.048-1.047-3.892-2.519-5.256-4.384    c-3.51-4.799-11.532-0.412-8.149,4.764C130.477,142.781,138.061,148.735,145.8,147.554z M87.965,174.706    c3.018,1.651,6.197,2.965,9.554,3.751c2.761,0.646,6.177,1.53,8.698-0.108c0.923-0.6,0.893-1.832,0-2.438    c-2.152-1.461-5.051-1.171-7.536-1.668c-3.036-0.607-5.905-1.647-8.663-3.047C87.697,170.018,85.655,173.441,87.965,174.706z     M134.67,160.203c0.754-1.016-0.079-2.408-1.113-2.737c-3.54-1.129-7.473-0.074-11.131-0.514c-4.501-0.542-8.54-2.503-11.858-5.569    c-2.981-2.754-7.383,1.597-4.472,4.472C112.202,161.886,128.005,169.186,134.67,160.203z M296.828,494.933    c0.649-2.51,1.94-4.89,3.233-7.2c1.405-2.508-2.027-5.376-4.079-3.147c-4.488,4.874-9.46,10.709-8.203,17.817    c1.152,6.51,6.807,11.426,13.555,10.233c5.871-1.036,10.253-6.909,7.72-12.737C306.992,495.155,301.28,492.94,296.828,494.933z     M489.924,369.109c-4.783-2.127,2.067,10.164,5.189,11.673c-8.569,5.299-16.658,14.935-20.786,20.424    c-10.369,13.785-12.086,32.495-8.444,46.94c1.877-15.646,9.577-29.938,18.573-42.928c14.956-21.596,25.237-19.699,27.229-24.617    C512.191,379.349,495.521,371.601,489.924,369.109z M454.216,344.433h-10.247l-4.729,11.602h12.61L454.216,344.433z     M454.237,337.623l-2.064-10.133h-11.014l2.064,10.133H454.237z M575.418,310.323c-1.05,5.808-2.376,11.503-3.936,17.108    c-1.772,92.035-48.957,176.047-127.039,225.547c-43.655,27.67-94.173,42.298-146.092,42.298    c-150.652,0-273.216-122.564-273.216-273.217c0-23.155,2.904-46.164,8.631-68.385c0,0-0.837-16.053-6.884-23.372    c-16.13-19.522-10.595-44.025,2.74-63.829c6.925-10.284,47.647-49.404,51.974-52.521c7.123-14.151,10.549-30.376,16.282-44.985    c7.26-18.501,19.049-34.351,37.188-43.356c16.092-7.99,34.595-11.417,51.794-6.085c27.054,8.388,45.527-11.819,54.596-15.061    c35.18-12.577,74.648,2.101,94.055,35.513c2.492,4.289,3.977,8.392,4.914,12.145C454.93,69.856,546.596,159.629,567.123,273.36    c0.154-0.009,0.301-0.032,0.456-0.038c3.437,0.57,6.483,2.719,8.433,6.441C580.612,288.548,577.082,301.119,575.418,310.323z     M43.147,188.233c-0.415,15.421,0.921,27.967,7.069,34.75c-3.014-13.917,4.605-32.462,4.586-31.75    c-0.415,15.421,0.921,27.967,7.069,34.75c-3.015-13.917,4.626-32.461,4.585-31.75c-2.776,48.104,44.233,40.656,50.458,34.746    c-13.843,3.337-32.561-3.85-31.848-3.847c15.426,0.056,27.938-1.57,34.577-7.874c-13.843,3.337-32.561-3.85-31.849-3.848    c20.679,0.076,43.253-17.258,43.625-17.359c10.734-2.933-6.303,9.974-2.282,40.584c11.103-13.959,27.631-25.908,27.08-25.246    c-14.24,17.129-24.3,31.879-24.773,42.488c9.747-17.104,33.384-34.248,32.727-33.457c-14.24,17.129-24.3,31.879-24.773,42.488    c9.746-17.104,33.384-34.248,32.727-33.457c-14.239,17.129-24.3,31.879-24.773,42.488c9.746-17.104,33.384-34.248,32.727-33.457    c-3.787,4.556-7.272,8.94-10.367,13.126c45.007-37.816,104.907-56.919,163.961-51.98c10.343,2.782,3.657-7.058,1.051-9.171    c-5.732-1.687-11.738-3.021-17.707-3.419c-12.708-0.847-25.506,1.977-37.357,6.365c-3.333,1.234,10.664-14.741,52.584-13.485    c-6.313-6.038-17.097-7.304-30.17-6.831c-0.603,0.021,14.486-7.574,26.585-4.658c-6.313-6.038-17.097-7.304-30.17-6.83    c-0.564,0.02,12.586-6.611,24.186-5.095c-0.498-0.799-17.081-6.78-27.771-6.394c-0.462,0.017,8.294-4.438,17.855-5.212    c-4.853-3.847-10.047-7.21-15.505-10.157c-2.226-1.201,10.185,0.622,14.104,2.949c-1.529-2.896-2.929-5.846-4.116-8.878    c-0.332-0.849-3.089-3.66-4.484-4.68c-1.266-0.926-5.627-4.349-6.269-5.303c-2.394,0.452-10.834-1.838-11.644-3.042    c-2.393,0.452-10.833-1.837-11.643-3.042c-2.394,0.452-5.022,0.395-7.928-0.364c-5.64-1.474-6.22-9.574-2.801-8.681    c13.105,3.424,22.9-8.884,32.462-27.221c0.303-0.581-1.667,16.259-9.317,27.283c0.8,0.116,1.597,0.268,2.393,0.435    c6.749-4.473,12.704-13.43,18.567-24.675c0.308-0.589-1.729,16.728-9.648,27.735c0.488,0.24,0.969,0.494,1.447,0.753    c7.279-4.145,13.615-13.498,19.845-25.446c0.329-0.631-2.025,19.28-11.423,29.977c8.67-2.941,15.935-13.256,23.066-26.935    c0.296-0.568-1.581,15.463-8.788,26.481c0.046-0.023,0.1-0.047,0.146-0.071c3.604-1.817,8.408-0.396,9.471,3.854    c0.492,1.074,5.063,11.68,21.297-1.389c1.623-1.307-12.959,19.519-23.449,20.094c-3.111,0.171-6.609-7.04-7.602-8.555    c-0.983,0.331-1.969,0.619-2.955,0.849c4.738,8.662,11.037,16.6,17.011,24.644c10.935-4.648,22.727-7.618,28.104-19.532    c4.845-10.734,4.002-23.429-6.088-31.337c-11.164-8.75-25.008-11.328-30.601-25.943c-3.135-8.191-0.464-27.173-15.022-38.455    c5.603,12.208,5.266,31.417-3.409,36.524c7.268-25.402-6.694-45.174-6.721-45.504c-12.735-8.662-28.682-11.403-43.888-8.497    c-0.916,0.175-1.821,0.38-2.726,0.591c6.108,6.348,9.187,15.378,8.895,15.072c-5.72-5.996-11.242-10.655-16.756-12.75    c-0.962,0.346-1.918,0.708-2.865,1.094c7.163,6.301,10.798,16.926,10.482,16.595c-6.077-6.37-11.931-11.23-17.789-13.107    c-0.715,0.39-1.428,0.785-2.132,1.198c7.359,6.264,11.103,17.185,10.782,16.849c-5.8-6.08-11.397-10.795-16.989-12.844    c-0.746,0.513-1.495,1.025-2.242,1.538c6.905,6.336,10.403,16.572,10.093,16.246c-5.471-5.734-10.76-10.239-16.035-12.456    c-1.381,0.787-2.798,1.504-4.268,2.122c7.205,6.5,13.009,14.485,17.189,23.264c1.163,2.441,3.482,21.813,1.546,33.97    c0.318-0.007,8.271-11.967,6.772-33.218c-0.05-0.71,7.6,17.834,4.585,31.75c6.148-6.784,7.483-19.33,7.069-34.75    c-0.01-0.392,2.296,5.052,3.87,12.346c0.822-8.812-0.518-17.074-3.892-25.284c-1.235-3.005,3.714-4.96,5.175-2.182    c7.311,13.902,11.266,37.086,0.505,50.551c-1.941,4.777-6.105,10.57-11.362,10.264c-22.521-1.31-29.861,14-36.224,12.804    c-6.154-1.158-21.403-7.402-31.747,7.016c-2.788,3.885-9.344-1.813-9.936-1.569c-2.777,1.145-10.858,6.586-11.835,7.053    c-7.734,3.696-18.349-3.577-24.029-8.557c-7.542-6.614-12.452-15.996-14.249-25.789c-0.493-2.687,3.339-3.822,4.138-1.141    c0.207,0.693,0.455,1.36,0.693,2.033c-0.098-0.419-0.131-0.644-0.083-0.577c8.915,12.589,17.506,21.828,26.494,23.571    c-10.757-9.33-15.78-28.74-15.369-28.159c8.915,12.59,17.506,21.829,26.494,23.571c-10.757-9.33-15.78-28.74-15.368-28.159    c8.915,12.59,17.506,21.829,26.494,23.572c-10.757-9.33-15.78-28.74-15.369-28.159c9.604,13.563,18.834,23.229,28.587,23.829    c1.981-1.103,20.592-1.378,21.955-0.715c8.729-5.775,10.568-19.65,10.093-37.319c-0.019-0.712,7.6,17.833,4.585,31.75    c6.098-6.729,8.006-37.017,7.581-37.709c-6.303-10.253-16.72-15.865-27.006-21.752c-12.592-0.271-25.009-6.793-37.885-5.961    c-3.819,0.247-7.61,0.905-11.308,1.917c5.61,3.274,9.421,6.892,9.097,6.785c-6.169-2.032-11.913-3.491-17.083-3.956    c-2.328,1.018-4.596,2.172-6.77,3.484c9.66,3.17,17.677,10.661,17.213,10.508c-10.27-3.383-19.365-5.181-26.585-3.424    c-0.637,0.596-1.253,1.212-1.861,1.838c11.562,1.774,22.342,11.799,21.806,11.623c-11.361-3.742-21.287-5.552-28.824-2.745    c-0.223,0.336-0.452,0.669-0.67,1.008c11.95,1.296,23.406,11.956,22.854,11.773c-10.868-3.579-20.411-5.371-27.818-3.065    c-2.611,5.104-4.873,10.38-7.039,15.696c-1.025,4.42-2.274,8.816-2.639,13.395c-0.683,8.588,0.378,16.989,2.656,25.285    c1.06,3.86-4.85,5.463-5.974,1.647c-1.544-5.243-2.853-11.49-3.461-17.944c-2.703,5.684-5.76,11.171-9.521,16.279    c-2.306,8.221,1.257,18.25,7.294,29.517c0.273,0.509-12.031-8.805-15.472-20.245c-0.267,0.252-0.522,0.509-0.794,0.758    c-0.065,0.06-0.133,0.095-0.199,0.151c-1.32,7.848,2.149,17.201,7.728,27.611c0.272,0.508-11.971-8.762-15.445-20.164    c-0.115,0.125-0.22,0.254-0.335,0.378c-0.241,0.258-0.486,0.514-0.728,0.772c-1.174,7.782,2.269,17.021,7.771,27.289    c0.266,0.497-11.432-8.358-15.199-19.413c-0.489,0.519-0.98,1.035-1.467,1.556c-0.686,7.535,2.698,16.37,7.928,26.132    c0.259,0.482-10.762-7.85-14.853-18.451c-1.108,1.275-2.223,2.545-3.294,3.853c-10.542,12.879-24.001,33.86-14.388,49.814    C37.234,201.976,43.164,187.605,43.147,188.233z M317.769,285.962c0.749-6.565,3.98-11.024,9.973-13.913    c5.937-2.861,13.394-3.664,19.327-0.403c0.638,0.351,1.139,0.785,1.557,1.258c-2.045-7.599-3.363-15.354-4.721-23.115    c-1.535-0.022-2.998,0.267-4.454,0.79c-1.376,0.495-2.745,1.198-4.165,2.077c-3.94,2.439-5.418,6.168-8.852,8.966    c-1.882,1.533-4.811,1.941-7.186,1.2c-6.434,3.701-5.297,16.571-5.922,15.62c-3.598-5.476,1.941-21.314,2.1-21.521    c0.983-7.56,8.076-13.198,15.293-15.095c1.844-0.484,3.754-0.681,5.682-0.664c2.013,0.017,4.045,0.267,6.04,0.694    c-2.093-10.457-5.79-20.054-9.573-29.852c-1.973,0.02-3.958,0.063-5.948,0.118c-50.394,1.384-105.625,14.031-141.758,49.632    c2.569-2.29,11.242-3.505,10.572-1.971c-2.981,6.829-10.918,16.819-6.901,13.031c2.684-2.531,6.409,1.281,4.016,4.016    c-4.504,5.148-5.133,8.944,0.327,7.227c6.801-2.139-2.841,10.897-5.497,15c-0.629,0.972,10.455,2.801,6.672,5.512    c-2.425,1.738-7.531,12.354-9.624,14.389c-2.007,1.95-16.644-12.204-19.879-13.822c-0.003,0.075-0.048,0.149-0.145,0.149    c-0.159,0-0.155-0.165-0.062-0.245c-6.12-3.01-13.173-4.251-19.192-2.31c-10.751,3.469-13.384,17.753-11.193,27.339    c2.2,9.624,8.959,16.881,18.319,19.902c4.438,1.433,8.804,1.219,13.179,1.073c-5.367-4.033-7.014-10.938-5.197-17.277    c0.866-3.021,4.967-5.356,4.095-6.307c-10.107-4.241-22.519,9.364-21.59,5.522c1.579-6.533,8.468-12.569,15.565-13.792    c-2.795-2.952-6.066-5.028-10.418-5.078c-2.344-0.027-2.973-3.718-0.566-4.184c10.397-2.015,20.144,5.468,26.32,13.26    c4.362,5.503,3.5,14.185-1.671,17.26c1.448,2.039,5.712,1.4,8.347,2.344c2.829,1.013,4.004,3.828,2.661,6.541    c-0.971,1.962-4.491,26.029,20.117,49.111c1.423,1.334,0.391,3.327-0.886,4.278c4.354,8.866,6.975,19.156,4.39,27.937    c0.815,0.992,1.68,1.945,2.649,2.809c1.503,1.337,3.317,2.342,4.944,3.541c13.259,3.099,25.985,8.803,39.006,13.689    c10.978,4.12,22.474,7.543,34.301,7.35c9.886-0.162,19.083-5.133,28.815-4.713c0.304,0.013,1.4-0.728,1.682-1.157    c-22.424,1.832-56.05-10.636-65.167-20.542c26.128,4.149,54.859-1.536,77.604-15.295c22.39-13.544,38.979-34.91,41.549-62.458    c1.182-12.671,0.298-25.747-4.75-37.456c-10.124-23.48-12.511-30.751-15.425-33.372c-0.649-0.584-1.324-0.94-2.117-1.19    c-4.352-1.372-13.484-1.056-16.651-0.441c2.219,0.075,6.426,4.052,5.562,4.475c-2.181,1.066-3.865,0.928-6.25,0.931    C330.038,286.832,317.492,288.38,317.769,285.962z M328.113,472.345c1.036-3.284,5.262-2.124,5.546,0.75    c0.198,2.001,5.568-1.058,3.946-3.173c-3.293-4.289-8.164-14.03-8.503-13.997c0.752-0.074-11.551,6.634-11.907,7.07    c4.537,9.587,12.687,40.446,13.146,46.016c2.328-4.157,4.482-8.413,6.404-12.79C337.46,494.594,323.364,487.394,328.113,472.345z     M49.856,235.805c3.646,10.392,6.056,21.292,14.237,29.164c6.662,6.409,15.708,10.341,25.04,9.85    c9.617-0.506,28.491-12.635,30.457-12.252c-0.245-1.099-3.789-6.037-3.533-7.522c-1.07,0.733-24.479,8.018-33.253,1.411    c-2.634-1.984,19.24,4.145,31.382-15.755C103.855,243.19,59.702,240.319,49.856,235.805z M132.188,506.582    c11.596-4.39,21.605-11.143,30.273-20.071c4.119-4.243,7.376-10.077,11.09-15.274c1.067-3.48,4.928-17.918,4.896-21.714    c-0.154-17.886,11.234-23.369,9.655-23.565c-8.462-1.052-18.795-6.255-14.39-10.111c1.472-1.289,3.646-3.378,5.597-5.765    c-5.202,2.479-20.067-5.472-20.963-6.73c-2.772-3.893,15.301-1.142,8.866-18.088c-1.641-4.321-5.638-7.187-8.761-10.518    c-2.615-2.789-4.686-5.614-5.453-8.742c-6.412-1.552-12.534-4.469-16.836-7.682c-11.826-8.831-17.69-23.788-16.076-38.339    c0.842-7.594,3.794-14.991,8.673-20.418c-5.414-2.531-9.623-7.456-11.064-13.548c-0.053-0.222-0.081-0.447-0.126-0.67    c-15.607,10.617-39.075,10.111-54.88,1.266c-3.305-1.85-6.369-4.096-9.196-6.606c-0.583,3.425-1.119,6.859-1.559,10.311    c0.788,0.029,1.32,0.058,1.355,0.085c5.1,4.111,10.802,7.321,16.843,9.662H50.899c-0.259,2.947-0.458,5.9-0.613,8.859h58.207    c-0.563,2.936-1.234,6.564-1.859,10.063H49.964c-0.013,1.025-0.048,2.049-0.048,3.075c0,1.934,0.029,3.86,0.073,5.783h55.13    c-0.328,2.065,0.066,7.976,0.518,10.063H50.436c0.188,2.966,0.416,5.921,0.707,8.858h57.168c1.393,3.546,3.14,6.936,5.189,10.063    H52.36c0.417,2.969,0.872,5.925,1.394,8.859h67.535c4.491,3.587,10.226,6.687,15.659,10.063H55.776    c0.657,2.971,1.356,5.928,2.119,8.858h90.495c2.549,2.749,4.499,5.847,5.378,9.529c-0.331,0.139-64.821,0.386-93.032,0.487    c0.916,2.993,1.89,5.96,2.915,8.904h80.115c0.103,3.421,3.461,6.783,6.99,10.063H67.391c1.187,2.983,2.438,5.934,3.735,8.858h87.4    c1.812,3.511,3.33,6.813,4.486,10.063H75.865c1.489,2.986,3.029,5.942,4.633,8.859h84.699c0.413,3.199,0.414,6.505-0.064,10.063    H86.338c1.834,2.995,3.73,5.948,5.686,8.858h71.078c-0.224,0.714-2.86,7.732-4.063,10.063H99.15    c2.245,3.008,4.561,5.958,6.936,8.858h46.983c-3.573,4.094-7.574,7.09-11.892,10.063h-26.403c2.755,3.022,5.587,5.976,8.487,8.858    h11.708c-1.328,1.068-5.015,2.209-8.177,3.448C128.564,503.275,130.366,504.939,132.188,506.582z M318.653,569.658    c-0.231-11.457-0.509-22.892-0.996-34.34c-15.786,8.312-42.47-1.332-55.785-8.266c-23.537-12.256-45.834-27.108-70.833-35.741    c11.365,8.791,20.878,21.638,20.334,21.21c-14.342-11.304-26.71-19.186-35.667-19.185c14.36,7.538,28.63,26.727,27.969,26.204    c-14.343-11.303-26.71-19.185-35.667-19.184c14.36,7.538,28.631,26.727,27.969,26.205c-14.342-11.304-26.71-19.186-35.667-19.186    c14.36,7.539,28.656,26.693,27.969,26.205c-18.55-13.183-34.225-16.957-44.164-17.766c-0.397-0.031-0.802-0.068-1.181-0.091    c0.216,0.173,0.436,0.341,0.652,0.513c42.485,33.932,96.29,54.257,154.763,54.257C305.151,570.495,311.922,570.206,318.653,569.658z     M319.531,495.162c-1.642-9.455-4.359-18.587-7.976-27.451c-12.542,7.188-33.211,3.261-45.11-0.81    c-24.744-8.465-46.972-25.343-73.713-25.731c-0.135,1.15-0.262,2.301-0.409,3.45c16.181-3.97,45.257,13.881,44.294,13.596    c-17.51-5.186-31.917-7.925-40.236-4.605c16.131,1.682,36.495,14.218,35.687,13.979c-17.509-5.186-31.917-7.925-40.236-4.605    c16.131,1.682,36.496,14.218,35.687,13.979c-16.821-4.982-30.755-7.682-39.203-4.946c-0.038,0.151-0.07,0.303-0.112,0.453    c15.975,2.045,35.559,14.101,34.766,13.865c-16.136-4.778-29.644-7.485-38.175-5.283c-0.096,0.156-0.204,0.3-0.305,0.45    c21.831,3.686,41.824,13.323,61.783,23.124c12.486,6.131,25.135,13.07,38.623,16.736c12.654,3.439,21.68,0.912,32.424-3.791    C318.067,516.252,320.659,501.656,319.531,495.162z M401.459,527.497c-0.318-0.407-0.616-0.833-0.896-1.276    c-1.547-2.465-4.204-15.859-5.38-25.322c-3.204,5.303-5.911,9.537-5.931,9.286c-0.692-8.727-1.669-16.548-3.159-23.073    c-1.626,0.755-3.364,1.189-5.174,1.334c-0.092,11.384-2.004,21.411-2.048,20.857c-0.622-7.837-1.469-14.953-2.713-21.053    c-1.877-0.271-3.77-0.744-5.626-1.373c-0.018,11.663-1.997,22.107-2.042,21.543c-0.716-9.026-1.728-17.107-3.302-23.774    c-1.57-0.772-3.073-1.6-4.45-2.448c-0.225-0.139-0.428-0.306-0.649-0.447c0.571,13.237-1.93,26.42-1.98,25.787    c-0.967-12.196-9.917-14.629-11.889-7.676c-6.506,22.938-15.353,27.614-19.154,28.403c2.298,13.183,3.943,26.596,4.655,39.979    c22.258-3,43.948-8.978,64.517-17.8C405.283,546.564,407.508,535.26,401.459,527.497z M405.427,481.16    c8.489-5.843,18.341-8.49,26.119-9.63c6.779-0.994,9.271-9.479,4.075-13.945c-2.282-1.96-4.993-3.701-8.16-4.854    c-31.183-11.349-37.148-49.586-37.924-62.494c-1.64-27.265,9.335-58.003,7.785-64.812c-7.359-4.271-5.112-17.485,2.077-21.296    c0.116-0.062,0.236-0.105,0.353-0.163c-0.262-2.167,2.788-12.334,6.411-12.414c24.585-2.407,29.808-24.528,50.673-21.815    c7.517,0.978,13.686,4.168,18.815,8.657c-0.907-2.712-1.829-5.436-2.671-8.208c-5.175-17.033-5.857-36.063,9.788-47.507    c3.581-2.619,11.997-3.23,14.362,8.829c1.603,8.166,8.646,14.148,12.292,21.667c2.271-7.132,8.059-17.206,16.067-21.044    c1.411-0.261,2.963-0.138,4.51,0.245c-1.525-3.92-3.137-7.796-4.854-11.618c-2.437,0.514-4.972,1.669-7.6,3.62h-11.484    c-1.855-3.893-3.612-7.433-5.926-10.063h21.992c-1.446-2.986-2.95-5.939-4.512-8.858H367.851c1.016-2.9,1.667-6.153,1.417-10.063    h142.666c-1.785-2.993-3.628-5.947-5.533-8.858H367.233c-1.116-3.47-2.513-6.828-4.212-10.063H499.49    c-2.182-3.002-4.421-5.959-6.73-8.859H360.486c1.232-1.474,3.806-2.542,7.728-3.204c1.449-2.392,2.963-4.664,4.495-6.858H484.25    c-2.677-3.02-5.425-5.972-8.243-8.859h-96.832c2.525-3.397,4.941-6.7,7.066-10.063h79.411c-3.344-3.053-6.794-5.988-10.3-8.858    h-64.434c1.305-3.165,2.249-6.483,2.698-10.063h48.625c-4.336-3.096-8.785-6.041-13.32-8.858h-35.211    c-0.308-3.128-0.984-6.472-2.066-10.063h19.506c-6.264-3.211-12.669-6.179-19.222-8.858c0,0-23.962-8.515-34.492-11.17    c-0.205-0.052-0.414-0.105-0.608-0.153c0.343,0.172,0.671,0.342,1.012,0.512c1.991,0.996,3.945,1.981,5.676,3.062    c13.591,8.494,21.779,22.856,20.058,39.06c-2.235,21.023-17.861,40.054-38.401,43.205c7.623,11.928,16.522,26.651,15.445,40.585    c-0.42,5.435-4.489,10.721-10.439,10.486c2.806,6.822,4.466,14.222,5.849,21.587c3.034,16.161,5.112,32.126,12.168,47.183    c6.408,13.675,13.885,26.205,16.571,41.297c2.376,13.345,1.99,27.044-0.998,40.263c-7.055,31.201-29.955,55.868-58.108,67.253    c-0.592,4.505,7.837,10.509,8.436,10.465c1.122-0.844,2.673-0.99,3.792,0.366C344.658,454.132,365.189,484.646,405.427,481.16z     M499.313,337.442c1.448,0.632,2.877,1.308,4.279,2.035c1.995-9.247,4.595-18.345,5.779-27.78c0.525-4.187,0.392-9.967,0.02-15.479    c-0.578-8.588-1.736-16.522-1.89-16.743c-5.106-7.333-9.062-15.235-12.75-23.358c-0.85-1.872-2.05-18.598-8.548-17.327    c-3.127,0.612-5.534,6.898-5.139,15.446c0.426,9.216,4.11,21.063,13.701,31.295C500.821,303.271,489.604,316.508,499.313,337.442z     M443.608,523.629c-7.213,1.062-16.354,1.797-24.11,0.593c-0.022,0.148,7.283,2.526,16.774,4.497    C438.754,527.062,441.199,525.363,443.608,523.629z M471.406,500.378c-4.637,0.827-9.304,1.545-14.011,2.14    c-11.665,1.475-23.223,2.174-34.978,2.189c-1.83,0.002,15.438,5.886,32.091,6.06c0.799,0.009-19.969,5.396-35.689,3.284    c0.107,0.396,14.816,4.896,29.016,6.472C456.163,514.258,464.021,507.521,471.406,500.378z M561.938,285.026    c-20.939,8.689-9.354,68.519-37.846,73.771c-2.057,0.379,13.008-22.671,15.668-55.092c5.084-8.364-8.339-43.471-10.469-60.314    c-0.54-4.273-16.313,4.67-11.293,27.169c1.862,8.346,7.805,14.442,8.312,23.031c1.077,18.252-2.708,38.278-8.493,55.503    c-0.006,0.018-0.016,0.031-0.021,0.049c1.342,1.166,3.687,11.772,2.781,12.293c-2.178,1.254-22.002-13.01-30.882-17.065    c-2.044-0.341-4.133-1.093-5.755-2.386c-1.14-0.437,2.998-17.234-6.211-40.448c-0.705-1.787-1.51-3.438-2.381-4.982    c-6.997-12.402-19.199-16.645-34.738-6.594c-6.24,4.037-11.973,8.631-18.237,11.378c-0.905,0.396-1.473,1.131-1.714,1.944    c-0.419,1.412,0.161,3.066,1.777,3.642c8.865,3.156,19.253-11,24.106-11.184c8.982-0.34,17.606,4.188,22.542,11.702    c10.136,15.431,6.662,39.236-2.188,54.352c-2.798,4.778-6.51,9.831-11.146,13.372c5.04,3.765,8.735,9.356,6.292,14.965    c-0.902,2.069-14.774-14.252-41.187-18.629c-6.188-7.855-2.948-16.87-1.124-25.632c4.796-23.039-2.123-28.335-7.887-29.198    c-2.492-0.373-4.358,2.269-3.274,4.544c3.411,7.161,2.535,18.325,1.212,24.757c-7.43,36.102-3.886,48.363-1.576,56.136    c3.932,13.236,12.604,24.481,23.313,33.004c9.184,7.308,19.55,13.187,25.451,23.787c4.345,7.805,5.913,17.88,3.183,26.484    c9.556-0.478,19.007-1.527,28.339-3.265c1.006-1.192,1.995-2.397,2.978-3.606c-7.925-1.131-19.395-2.485-18.979-2.499    c8.819-0.291,19.128-3.055,24.773-4.916c0.313-0.416,0.617-0.839,0.928-1.258c-11.556,1.021-24.964-2.535-24.399-2.554    c4.801-0.158,15.403-3.646,19.424-4.157c-12.906-0.517-24.448-12.436-16.001-13.18c17.282-1.521,29.263-7.443,38.021-23.008    c7.811-13.881,9.662-29.861,15.817-44.385c4.041-9.535,8.982-18.527,13.58-27.71c0.02-0.151,0.045-0.302,0.064-0.452    c0.664-1.238,1.315-2.481,1.977-3.72c2.531-5.252,4.904-10.593,6.854-16.181c2.801-8.027,6.779-16.012,6.978-24.512    c0.212-9.096,2.97-16.853,4.851-21.469C566.236,286.358,564.087,284.134,561.938,285.026z M435.303,354    c-1.876,8.17-0.255,11.146,8.671,12.6c6.678,1.089,8.672-2.029,12.339-7.451c1.741-2.574,15.221-22.506-0.659-43.044    c-5.597-7.239-22.687,1.33-23.65,1.664C435.083,323.025,439.525,335.61,435.303,354z" fill="#000000" fill-opacity="1"></path></g><path d="M198.05 284.19L198.05 284.19L197.38 284.19Q191.05 284.19 185.59 280.87Q180.13 277.56 176.97 272.07Q173.81 266.57 173.81 260.38L173.81 260.38Q173.81 250.62 180.87 243.59Q187.92 236.56 197.74 236.56L197.74 236.56Q204.31 236.56 210.20 240.00L210.20 240.00L210.20 242.27Q204.43 238.34 197.74 238.34L197.74 238.34Q188.72 238.34 182.28 244.82Q175.83 251.29 175.83 260.34Q175.83 269.40 182.28 275.90Q188.72 282.41 197.74 282.41L197.74 282.41Q204.43 282.41 210.20 278.48L210.20 278.48L210.20 280.75Q204.62 284.19 198.05 284.19ZM219.53 267.43L219.53 283.51L217.57 283.51L217.57 237.54L219.53 237.54L219.53 261.23Q222.60 255.22 230.15 255.22L230.15 255.22Q235.31 255.22 238.83 258.78Q242.36 262.34 242.36 267.43L242.36 267.43L242.36 283.51L240.40 283.51L240.40 267.43Q240.40 263.14 237.39 260.04Q234.38 256.94 230.15 256.94Q225.92 256.94 222.72 260.07Q219.53 263.20 219.53 267.43L219.53 267.43ZM262.92 284.25L262.92 284.25L262.37 284.25Q256.54 284.25 252.21 279.86Q247.89 275.47 247.89 269.64Q247.89 263.81 252.18 259.55Q256.48 255.28 262.80 255.28Q269.12 255.28 273.66 260.31L273.66 260.31L254.39 279.34Q258.38 282.53 262.06 282.53Q265.75 282.53 268.66 280.84Q271.58 279.16 273.48 276.33L273.48 276.33L273.48 279.46Q269.12 284.25 262.92 284.25ZM262.28 257.00Q257.40 257.00 253.63 260.77Q249.85 264.55 249.85 269.46Q249.85 274.37 253.10 278.05L253.10 278.05L270.96 260.31Q267.16 257.00 262.28 257.00ZM289.99 244.72L289.99 244.72L289.99 246.44Q286.43 246.44 283.94 248.90Q281.46 251.35 281.46 255.10L281.46 255.10L281.46 271.24L290.05 271.24L290.05 272.96L281.46 272.96L281.46 283.51L279.49 283.51L279.49 255.10Q279.49 250.56 282.56 247.64Q285.63 244.72 289.99 244.72ZM295.88 283.51L295.88 237.48L298.52 237.48Q304.47 237.48 308.98 241.87Q313.50 246.26 313.50 252.18Q313.50 258.10 308.89 262.46Q304.29 266.82 299.01 266.82L299.01 266.82L298.58 266.82L314.42 283.51L311.78 283.51L297.85 268.91L297.85 283.51L295.88 283.51ZM297.85 239.26L297.85 265.04L298.95 265.04Q303.92 265.04 307.73 261.23Q311.53 257.43 311.53 252.21Q311.53 247.00 307.60 243.13Q303.68 239.26 298.64 239.26L298.64 239.26L297.85 239.26ZM332.77 284.19Q326.88 284.19 322.64 279.80Q318.41 275.41 318.41 269.58Q318.41 263.75 322.70 259.49Q327.00 255.22 333.04 255.22Q339.09 255.22 343.35 259.49Q347.62 263.75 347.62 269.61Q347.62 275.47 343.45 279.83Q339.27 284.19 333.32 284.19L333.32 284.19L332.77 284.19ZM345.66 269.73Q345.66 264.55 341.94 260.74Q338.23 256.94 333.07 256.94Q327.92 256.94 324.14 260.77Q320.37 264.61 320.37 269.77Q320.37 274.92 324.14 278.70Q327.92 282.47 333.10 282.47Q338.29 282.47 341.97 278.70Q345.66 274.92 345.66 269.73ZM375.67 271.97L375.67 255.89L377.63 255.89L377.63 282.65Q377.63 288.12 373.83 291.92Q370.02 295.73 364.50 295.73L364.50 295.73Q357.87 295.73 354.00 290.63L354.00 290.63L354.13 287.56Q355.84 290.51 358.64 292.26Q361.43 294.01 364.50 294.01L364.50 294.01Q369.04 294.01 372.35 290.72Q375.67 287.44 375.67 282.84L375.67 282.84L375.67 278.17Q372.66 284.19 365.17 284.19L365.17 284.19Q360.08 284.19 356.46 280.60Q352.84 277.01 352.84 271.97L352.84 271.97L352.84 255.89L354.80 255.89L354.80 271.97Q354.80 276.21 357.90 279.34Q361.00 282.47 365.23 282.47Q369.47 282.47 372.57 279.34Q375.67 276.21 375.67 271.97L375.67 271.97ZM409.98 255.89L411.94 255.89L411.94 283.51L409.98 283.51L409.98 276.64Q408.26 280.14 404.82 282.16Q401.38 284.19 397.46 284.19L397.46 284.19Q391.44 284.19 387.14 279.92Q382.85 275.66 382.85 269.70Q382.85 263.75 387.14 259.49Q391.44 255.22 397.46 255.22L397.46 255.22Q401.38 255.22 404.97 257.31Q408.56 259.39 409.98 262.83L409.98 262.83L409.98 255.89ZM384.81 269.77Q384.81 274.92 388.59 278.70Q392.36 282.47 397.55 282.47Q402.73 282.47 406.42 278.70Q410.10 274.92 410.10 269.73Q410.10 264.55 406.39 260.74Q402.67 256.94 397.52 256.94Q392.36 256.94 388.59 260.77Q384.81 264.61 384.81 269.77ZM429.80 282.35L429.80 282.35L429.80 284.07Q425.44 284.07 422.37 281.15Q419.30 278.23 419.30 273.69L419.30 273.69L419.30 237.48L421.27 237.48L421.27 273.69Q421.27 277.44 423.75 279.89Q426.24 282.35 429.80 282.35ZM446.06 284.25L446.06 284.25L445.51 284.25Q439.68 284.25 435.35 279.86Q431.03 275.47 431.03 269.64Q431.03 263.81 435.32 259.55Q439.62 255.28 445.94 255.28Q452.26 255.28 456.80 260.31L456.80 260.31L437.53 279.34Q441.52 282.53 445.20 282.53Q448.89 282.53 451.80 280.84Q454.72 279.16 456.62 276.33L456.62 276.33L456.62 279.46Q452.26 284.25 446.06 284.25ZM445.42 257.00Q440.54 257.00 436.77 260.77Q432.99 264.55 432.99 269.46Q432.99 274.37 436.24 278.05L436.24 278.05L454.10 260.31Q450.30 257.00 445.42 257.00Z" data-element="company-name" data-text-path="" data-text="ChefRoyale" data-font-family="Poiret One" fill="#000000" fill-opacity="1"></path></g></g></svg>